<?xml version="1.0" encoding="UTF-8" standalone="no"?>
<!-- Generator: Adobe Illustrator 17.0.0, SVG Export Plug-In . SVG Version: 6.00 Build 0)  -->

<svg
   xmlns:dc="http://purl.org/dc/elements/1.1/"
   xmlns:cc="http://creativecommons.org/ns#"
   xmlns:rdf="http://www.w3.org/1999/02/22-rdf-syntax-ns#"
   xmlns:svg="http://www.w3.org/2000/svg"
   xmlns="http://www.w3.org/2000/svg"
   xmlns:sodipodi="http://sodipodi.sourceforge.net/DTD/sodipodi-0.dtd"
   xmlns:inkscape="http://www.inkscape.org/namespaces/inkscape"
   version="1.1"
   id="Capa_1"
   x="0px"
   y="0px"
   width="143"
   height="175"
   viewBox="0 0 143 175"
   enable-background="new 0 0 116.715 35.433"
   xml:space="preserve"
   inkscape:version="0.48.2 r9819"
   sodipodi:docname="tituloLogo.svg"><metadata
   id="metadata35"><rdf:RDF><cc:Work
       rdf:about=""><dc:format>image/svg+xml</dc:format><dc:type
         rdf:resource="http://purl.org/dc/dcmitype/StillImage" /><dc:title></dc:title></cc:Work></rdf:RDF></metadata><defs
   id="defs33">
	
	
	
	
	
	
	
	
	
	
	
	
	
</defs><sodipodi:namedview
   pagecolor="#ffffff"
   bordercolor="#666666"
   borderopacity="1"
   objecttolerance="10"
   gridtolerance="10"
   guidetolerance="10"
   inkscape:pageopacity="0"
   inkscape:pageshadow="2"
   inkscape:window-width="1280"
   inkscape:window-height="962"
   id="namedview31"
   showgrid="false"
   inkscape:zoom="1.9754829"
   inkscape:cx="256.42385"
   inkscape:cy="74.455078"
   inkscape:window-x="-8"
   inkscape:window-y="-8"
   inkscape:window-maximized="1"
   inkscape:current-layer="Capa_1"
   inkscape:snap-page="false"
   showguides="true"
   inkscape:guide-bbox="true" />
<g
   id="g3008"><path
     stroke-miterlimit="10"
     d="m 25.611685,123.26772 c 0,9.82853 7.921504,17.75003 17.750036,17.75003 21.17768,0 32.068853,-10.14339 53.246533,-10.14339 9.828536,0 17.750036,7.92151 17.750036,17.75004"
     id="path5"
     inkscape:connector-curvature="0"
     style="fill:none;stroke:#00327e;stroke-width:12.67762661;stroke-miterlimit:10" /><polyline
     transform="matrix(3.5779151,0,0,3.5779151,19.271619,21.844558)"
     points="8.15,25.512 19.488,25.512 19.488,14.173 8.15,14.173  "
     id="polyline7"
     style="fill:#92231a" /><path
     d="m 88.998028,42.127759 c 0,-11.202452 -9.080748,-20.283201 -20.2832,-20.283201 -11.202452,0 -20.283201,9.080749 -20.283201,20.283201 0,11.202452 9.080749,20.2832 20.283201,20.2832 11.202452,0.0036 20.2832,-9.080748 20.2832,-20.2832 l 0,0 z"
     id="path9"
     inkscape:connector-curvature="0"
     style="fill:#da9313" /></g>
</svg>